PathFileType	4	(X/Y/Z)	c:/Users/goper/Files/vsCode/490R/osim_files/C04/C04_Fast_06.trc
DataRate	CameraRate	NumFrames	NumMarkers	Units                	OrigDataRate	OrigDataStartFrame	OrigNumFrames
250.00	250.00	6	36	mm	250.0	2038	3260
                Frame#	Time	LPSIS			LASIS			LTH1			LTH2			LTH3			LTH4			LLFE			LMFE			LSH1			LSH2			LSH3			LSH4			LLMAL			LMMAL			LCAL			LMTP5			LTOE			LMTP1			RPSIS			RASIS			RTH1			RTH2			RTH3			RTH4			RLFE			RMFE			RSH1			RSH2			RSH3			RSH4			RLMAL			RMMAL			RCAL			RMTP1			RTOE			RMTP5		
		X1	Y1	Z1	X2	Y2	Z2	X3	Y3	Z3	X4	Y4	Z4	X5	Y5	Z5	X6	Y6	Z6	X7	Y7	Z7	X8	Y8	Z8	X9	Y9	Z9	X10	Y10	Z10	X11	Y11	Z11	X12	Y12	Z12	X13	Y13	Z13	X14	Y14	Z14	X15	Y15	Z15	X16	Y16	Z16	X17	Y17	Z17	X18	Y18	Z18	X19	Y19	Z19	X20	Y20	Z20	X21	Y21	Z21	X22	Y22	Z22	X23	Y23	Z23	X24	Y24	Z24	X25	Y25	Z25	X26	Y26	Z26	X27	Y27	Z27	X28	Y28	Z28	X29	Y29	Z29	X30	Y30	Z30	X31	Y31	Z31	X32	Y32	Z32	X33	Y33	Z33	X34	Y34	Z34	X35	Y35	Z35	X36	Y36	Z36

2038	8.14800	-717.48254	976.07330	252.49402	-891.25928	964.50519	313.52734	-800.39563	712.90088	392.00183	-810.96790	652.84711	374.68668	-867.29633	728.16010	383.70767	-884.45374	671.13708	366.62109	-855.58655	454.61502	329.84491	-844.60797	449.49921	214.84489	-794.75623	354.34915	338.15167	-780.58252	309.02173	332.84744	-847.47803	345.10455	332.76846	-842.52588	298.61124	327.17383	-780.81238	71.99006	296.60483	-778.86774	95.23347	208.06470	-709.13147	51.05935	251.98859	-914.41693	15.75622	298.04459	-933.82092	43.13725	244.55632	-897.47675	18.30083	194.67560	-712.87451	971.51849	177.65340	-876.90729	941.59290	102.96781	-800.34985	701.87982	47.09179	-821.83875	643.89301	57.45633	-861.25195	726.76910	41.46604	-890.38586	673.59558	48.73278	-945.45776	462.46716	76.06962	-967.11469	457.46390	190.58055	-821.60272	407.81180	80.25384	-794.40985	371.71649	86.53294	-868.14398	368.17801	72.05570	-831.08276	333.22769	79.01033	-657.04639	211.58395	119.53400	-689.91083	204.07735	204.96477	-603.18463	227.99390	180.56183	-735.45575	75.92756	184.27063	-761.82330	70.89275	137.17149	-705.81061	78.04976	85.14035
2039	8.15200	-722.03845	976.51361	252.48265	-895.50836	964.70306	314.02084	-803.89331	713.06628	391.58176	-813.68213	653.13647	374.45285	-870.27203	728.06860	383.74371	-887.56909	670.83643	366.26593	-857.03864	454.75241	329.75360	-846.20380	449.61691	214.76880	-795.92102	354.65128	338.17050	-782.10333	308.96466	332.84595	-848.62299	345.13159	332.67645	-843.41913	298.65662	327.13248	-780.90717	72.19775	296.62012	-779.20294	95.07114	207.83647	-709.22418	51.35743	251.99780	-914.41089	15.68284	298.06500	-933.28784	41.96928	244.47340	-897.59186	18.70171	194.16188	-717.53931	972.13373	177.67406	-881.75836	942.63873	103.19689	-806.76721	702.71350	46.57218	-828.43018	644.99469	56.79287	-866.91492	728.37189	40.99755	-896.70886	675.37891	48.38067	-953.77246	464.75034	75.99530	-975.56885	459.95435	190.28740	-830.77820	408.04831	80.32237	-804.36865	371.24387	86.48947	-878.19177	369.55533	71.78154	-841.52148	333.45224	78.75246	-670.07947	207.99997	119.05164	-703.19116	201.04091	204.54485	-615.88171	222.63478	180.21387	-752.04431	74.27814	183.31071	-778.55463	70.11649	136.43954	-722.53369	76.03429	84.20055
2040	8.15600	-726.51074	976.97510	252.48602	-899.94800	964.69611	314.21298	-806.93097	713.38361	391.36249	-816.34564	653.40894	374.22424	-873.43488	728.06281	383.69427	-890.43506	670.64050	366.17661	-858.83124	454.71564	329.64273	-847.58685	449.74936	214.61607	-797.20215	354.83493	338.09985	-783.08759	309.26584	332.81940	-849.80310	345.15149	332.54202	-844.53528	298.57901	326.90042	-781.05219	72.33739	296.69159	-779.41528	95.24538	207.76891	-709.52911	51.73290	252.15886	-914.44623	15.58371	298.09668	-933.34766	41.78391	244.55367	-897.36456	17.29150	195.45465	-722.11371	972.74805	177.57341	-886.66791	943.71735	103.35810	-812.84314	703.67761	46.00591	-834.92047	646.15503	56.10562	-873.06915	729.73145	40.80363	-902.88220	677.17108	47.82693	-962.02234	467.01685	75.87914	-983.99683	462.44672	190.06689	-839.91058	408.04858	80.42447	-814.50568	370.51913	86.12024	-888.41815	370.97803	71.81832	-852.02222	333.69489	78.43056	-683.28046	204.32857	118.61710	-716.77191	197.83734	204.02510	-628.73962	217.16559	179.87978	-767.87177	72.82793	182.47064	-795.52692	69.39573	135.34303	-739.39465	73.95365	83.21650
2041	8.16000	-730.92487	977.46332	252.40630	-904.26093	964.84271	314.50571	-809.98541	713.69843	391.04736	-817.97760	654.17255	374.26120	-876.65686	728.05676	383.53146	-893.26770	670.59839	366.02930	-860.41339	454.84558	329.54340	-848.91730	449.90500	214.46822	-798.35077	355.11758	338.06567	-784.21912	309.57196	332.81384	-850.98792	345.24298	332.26706	-845.50110	298.86328	326.81281	-781.27954	72.54282	296.62866	-779.65582	95.45841	207.66626	-709.83441	51.70662	251.68202	-914.51581	15.52413	298.10217	-933.40649	41.66337	244.54671	-897.39539	17.31288	195.42451	-726.69098	973.40594	177.57310	-891.62048	944.80756	103.47159	-818.96027	704.62201	45.37153	-841.35510	647.34174	55.35330	-878.81274	731.32849	40.27492	-910.50061	678.19043	48.42338	-970.39136	469.15747	75.80798	-991.45062	464.84863	189.76614	-848.98590	407.99609	80.42653	-823.85004	370.27936	86.18905	-897.54022	371.28622	70.69424	-862.61877	334.62216	77.29227	-696.59967	200.59013	118.16261	-730.40826	194.60907	203.47797	-641.77515	211.65958	179.45041	-785.91547	71.15482	181.00020	-812.65442	68.50011	134.21957	-756.23114	71.99439	82.04061
2042	8.16400	-735.43060	977.91718	252.34409	-908.59875	965.01575	314.83163	-812.94464	714.04352	390.82092	-820.73590	654.55499	373.95923	-879.91882	727.93610	383.32932	-896.11255	670.55457	365.78003	-862.06903	454.89163	329.41489	-850.63190	449.95419	214.39946	-799.57812	355.38010	338.02887	-785.19409	309.94803	332.73392	-852.22449	345.35757	332.15430	-846.65558	298.93170	326.58527	-781.46539	72.76469	296.64127	-779.78674	95.69003	207.60529	-708.27502	53.23343	252.78740	-914.57446	15.47905	298.09027	-933.51434	41.59855	244.56776	-897.34930	17.25419	195.25104	-731.15729	973.95416	177.48697	-896.60028	945.88831	103.55752	-824.82758	705.61664	44.69136	-847.73645	648.49426	54.62937	-884.66888	732.75549	39.90191	-916.48578	680.10669	47.73351	-978.68152	471.24014	75.75466	-999.06555	467.46326	189.34761	-857.99542	407.87466	80.41197	-834.30249	369.22250	85.66759	-907.97510	373.16470	70.63023	-873.03973	334.62665	77.00061	-709.92737	196.85231	117.60014	-744.09277	191.38057	202.94104	-655.04352	206.03714	179.08061	-801.95435	71.32953	179.12387	-829.74524	67.99969	132.77103	-773.10065	70.15293	80.81898
2043	8.16800	-739.81158	978.26196	252.25481	-913.19153	965.28333	315.14758	-815.87195	714.44080	390.55923	-823.37915	654.98169	373.59061	-882.65613	728.21326	383.43301	-898.82050	670.55505	365.67999	-863.73602	454.94772	329.34448	-851.95502	450.13727	214.18172	-800.77429	355.71707	337.95517	-786.23114	310.31827	332.69070	-853.30457	345.50897	332.13943	-847.59479	299.19098	326.52100	-781.68518	73.08665	296.68115	-781.57825	95.92345	208.26201	-708.72180	53.66381	252.85760	-914.61670	15.47005	298.12610	-933.59521	41.57758	244.50424	-897.94495	17.39816	194.38184	-735.79633	974.44061	177.42012	-901.59192	946.93811	103.63607	-830.76752	706.52539	43.95032	-854.38458	649.49615	53.91683	-890.42603	734.21234	39.56089	-922.60889	681.82025	47.30677	-986.74445	473.30627	75.70097	-1006.66925	469.93045	189.03754	-866.92963	407.63443	80.28925	-843.47052	368.82990	85.80428	-917.05994	373.22223	70.30085	-883.53784	334.55502	76.74154	-723.47345	192.96533	117.05560	-757.94647	188.13269	202.26730	-668.81317	200.54843	178.51410	-821.75507	70.00530	178.72636	-848.15271	69.51874	127.66363	-790.02551	68.35954	79.51148
